<svg xmlns="http://www.w3.org/2000/svg" version="1.1" xmlns:xlink="http://www.w3.org/1999/xlink" xmlns:svgjs="http://svgjs.com/svgjs" width="37.334297mm" height="37.334297mm"><svg width="37.334297mm" height="37.334297mm" viewBox="0 0 37.334297 37.334297" version="1.1" id="SvgjsSvg1021" xml:space="preserve" inkscape:export-filename="logo-no-background-horizontal.svg" inkscape:export-xdpi="96" inkscape:export-ydpi="96" xmlns:inkscape="http://www.inkscape.org/namespaces/inkscape" xmlns:sodipodi="http://sodipodi.sourceforge.net/DTD/sodipodi-0.dtd" xmlns="http://www.w3.org/2000/svg" xmlns:svg="http://www.w3.org/2000/svg"><sodipodi:namedview id="SvgjsSodipodi:namedview1020" pagecolor="#505050" bordercolor="#eeeeee" borderopacity="1" inkscape:showpageshadow="0" inkscape:pageopacity="0" inkscape:pagecheckerboard="0" inkscape:deskcolor="#505050" inkscape:document-units="mm"></sodipodi:namedview><defs id="SvgjsDefs1019"></defs><g inkscape:label="Camada 1" inkscape:groupmode="layer" id="SvgjsG1018" transform="translate(-30.781292,-119.31729)"><g id="SvgjsG1017" transform="matrix(0.26458333,0,0,0.26458333,-18.98924,120.15837)"><g id="SvgjsG1016"><g transform="translate(188.1091,-3.1788816)" id="SvgjsG1015"><svg viewBox="0 0 141.10553 141.10553" height="141.10553" width="141.10553" version="1.1" id="SvgjsSvg1014"><g id="SvgjsG1013"><svg version="1.1" id="SvgjsSvg1012" width="100%" height="100%"></svg></g><g id="SvgjsG1011"><svg viewBox="0 0 141.10553 141.10553" height="141.10553" width="141.10553" version="1.1" id="SvgjsSvg1010"><g id="SvgjsG1009"><path d="M 0,70.553 C 0,31.588 31.588,0 70.553,0 c 38.965,0 70.553,31.588 70.553,70.553 0,38.965 -31.588,70.553 -70.553,70.553 C 31.588,141.106 0,109.518 0,70.553 Z m 70.553,67.717 c 37.399,0 67.718,-30.318 67.717,-67.717 0,-37.399 -30.318,-67.718 -67.717,-67.718 -37.399,0 -67.718,30.318 -67.718,67.718 0,37.399 30.318,67.718 67.718,67.717 z" data-fill-palette-color="accent" fill="#06bbcc" stroke="transparent" id="SvgjsPath1008"></path><circle cx="70.552765" cy="70.552765" fill="#06bbcc" stroke="transparent" stroke-width="0" fill-opacity="1" data-fill-palette-color="accent" id="SvgjsCircle1007" r="69.847237"></circle></g><g transform="translate(28.064188,31.658592)" id="SvgjsG1006"><svg viewBox="0 0 84.977149 77.788341" height="77.788338" width="84.97715" version="1.1" id="SvgjsSvg1005"><g id="SvgjsG1004"><svg version="1.1" x="0" y="0" viewBox="1.364125 2.830375 97.08688 88.873626" enable-background="new 0 0 100 100" xml:space="preserve" height="77.788338" width="84.97715" class="icon-cg-0" data-fill-palette-color="quaternary" id="SvgjsSvg1003"><path d="M 3.849,30.766 29.287,5.317 C 32.605,2 37.98,2.004 41.287,5.314 l 25.457,25.452 c 3.312,3.314 3.307,8.679 -0.006,11.992 -3.316,3.316 -8.683,3.31 -11.996,-0.002 -1.74,-1.741 -10.966,-10.96 -10.966,-10.96 l 0.002,30.636 C 43.778,62.549 43.764,62 43.76,63 h 0.028 c 0,10 7.932,11.648 10.797,11.934 l 35.385,-0.11 c 4.684,0 8.481,3.743 8.481,8.427 0.005,4.683 -3.798,8.455 -8.481,8.453 L 54.144,91.692 54.13,91.628 C 52.978,91.624 47.154,91.902 41.208,88.826 32.114,84.12 27.05,76.212 26.882,63.225 26.843,62.892 26.818,62.556 26.818,62.214 L 26.813,31.8 c 0,0 -9.218,9.208 -10.971,10.96 -3.314,3.316 -8.682,3.313 -11.994,0 C 0.536,39.447 0.536,34.076 3.849,30.766 Z" fill="#ffffff" data-fill-palette-color="quaternary" id="SvgjsPath1002"></path></svg></g></svg></g></svg></g></svg></g></g><g id="SvgjsG1001"></g><rect width="395.51999" height="214.23592" fill="none" stroke="none" visibility="hidden" id="SvgjsRect1000" x="0" y="0"></rect></g></g></svg><style>@media (prefers-color-scheme: light) { :root { filter: none; } }
</style></svg>