<?xml version="1.0" encoding="UTF-8" standalone="no"?>
<!-- Created with Inkscape (http://www.inkscape.org/) -->

<svg
   width="227.33693mm"
   height="37.334297mm"
   viewBox="0 0 227.33693 37.334297"
   version="1.1"
   id="svg1"
   xml:space="preserve"
   inkscape:export-filename="logo-no-background-horizontal.svg"
   inkscape:export-xdpi="96"
   inkscape:export-ydpi="96"
   sodipodi:docname="logo-no-background-horizontal.svg"
   inkscape:version="1.3.2 (091e20e, 2023-11-25, custom)"
   xmlns:inkscape="http://www.inkscape.org/namespaces/inkscape"
   xmlns:sodipodi="http://sodipodi.sourceforge.net/DTD/sodipodi-0.dtd"
   xmlns="http://www.w3.org/2000/svg"
   xmlns:svg="http://www.w3.org/2000/svg"><sodipodi:namedview
     id="namedview1"
     pagecolor="#505050"
     bordercolor="#eeeeee"
     borderopacity="1"
     inkscape:showpageshadow="0"
     inkscape:pageopacity="0"
     inkscape:pagecheckerboard="0"
     inkscape:deskcolor="#505050"
     inkscape:document-units="mm"
     inkscape:zoom="2.1333149"
     inkscape:cx="467.11341"
     inkscape:cy="70.547485"
     inkscape:window-width="2560"
     inkscape:window-height="1009"
     inkscape:window-x="-8"
     inkscape:window-y="-8"
     inkscape:window-maximized="1"
     inkscape:current-layer="g3" /><defs
     id="defs1" /><g
     inkscape:label="Camada 1"
     inkscape:groupmode="layer"
     id="layer1"
     transform="translate(-30.781292,-119.31729)"><g
       id="tight-bounds"
       transform="matrix(0.26458333,0,0,0.26458333,-18.98924,120.15837)"><g
         id="g2"><g
           id="g3"><g
             id="g1"
             transform="matrix(2.3444996,0,0,2.3444996,-329.0205,-73.266738)"
             style="display:none"><path
               d="m 307.72236,48.077108 v 0 q 0.37481,-0.187406 0.93703,-0.32796 0.56222,-0.140555 1.17129,-0.140555 v 0 q 0.93703,0 1.57421,0.299849 0.6278,0.30922 0.81521,0.918289 v 0 q 1.17129,3.373305 2.13643,6.249985 0.95577,2.886049 1.8272,5.575323 0.86207,2.698644 1.75225,5.556583 v 0 h 0.1874 q 0.89018,-4.216631 1.73351,-8.227116 0.84332,-4.001115 1.6398,-8.124043 0.79647,-4.122928 1.45239,-8.808074 v 0 q 0.65593,-0.32796 1.59295,-0.32796 v 0 q 0.89018,0 1.40555,0.393552 0.51536,0.402923 0.51536,1.199397 v 0 q 0,0.890178 -0.25299,2.689274 -0.26237,1.808466 -0.70278,4.216631 -0.44977,2.417536 -1.03073,5.106809 -0.59033,2.698644 -1.24625,5.387918 -0.65592,2.698644 -1.31184,5.088068 -0.65592,2.389425 -1.26499,4.16978 v 0 q -0.42166,0.234257 -1.07758,0.440404 -0.65592,0.215516 -1.49925,0.215516 v 0 q -1.03073,0 -1.7335,-0.32796 -0.70277,-0.32796 -0.93703,-0.890178 v 0 q -0.65592,-1.639801 -1.59295,-4.338445 -0.93703,-2.689273 -1.93965,-5.903283 -1.01199,-3.20464 -1.94902,-6.343688 v 0 q -0.89018,3.092197 -1.92091,6.41865 -1.03073,3.326454 -1.9865,6.184393 -0.96514,2.857938 -1.71477,4.591442 v 0 q -0.32796,0.187406 -1.00262,0.393553 -0.68403,0.215516 -1.52735,0.215516 v 0 q -1.03074,0 -1.7054,-0.356071 -0.68403,-0.3467 -0.91829,-0.862067 v 0 q -0.46851,-1.171286 -1.14317,-3.513859 -0.68403,-2.342573 -1.43366,-5.369177 -0.74962,-3.017234 -1.47113,-6.268725 -0.73088,-3.260862 -1.35869,-6.287466 -0.63718,-3.017234 -1.012,-5.359806 v 0 q 0.32796,-0.327961 0.89018,-0.609069 0.56222,-0.281109 1.21814,-0.281109 v 0 q 0.84333,0 1.31184,0.393552 0.46852,0.402923 0.65592,1.339952 v 0 q 0.60907,2.951642 1.17129,5.715878 0.56222,2.764236 1.15254,5.575323 0.58096,2.811088 1.23688,5.875173 0.65592,3.073456 1.4524,6.587315 v 0 h 0.1874 q 0.65592,-2.108316 1.26499,-4.029225 0.60907,-1.92091 1.26499,-3.963634 0.65592,-2.033353 1.42429,-4.469629 0.77773,-2.436276 1.76161,-5.669026 z m 44.41518,10.588429 v 0 q 0,3.467008 -1.31184,6.043838 -1.31184,2.57683 -3.70126,3.982374 -2.38943,1.405544 -5.62218,1.405544 v 0 q -3.23275,0 -5.65028,-1.405544 -2.40817,-1.405544 -3.72001,-3.982374 -1.31184,-2.57683 -1.31184,-6.043838 v 0 q 0,-3.513859 1.33058,-6.071949 1.33995,-2.548719 3.74812,-3.954263 2.41753,-1.405544 5.60343,-1.405544 v 0 q 3.1859,0 5.57533,1.405544 2.38942,1.405544 3.72,3.954263 1.33995,2.55809 1.33995,6.071949 z m -10.63528,-8.339559 v 0 q -3.13905,0 -4.99436,2.230129 -1.84595,2.220759 -1.84595,6.10943 v 0 q 0,3.935523 1.7991,6.137541 1.80846,2.202019 5.04121,2.202019 v 0 q 3.1859,0 4.985,-2.23013 1.80846,-2.220759 1.80846,-6.10943 v 0 q 0,-3.888671 -1.80846,-6.10943 -1.7991,-2.230129 -4.985,-2.230129 z m 20.19298,1.546098 v 0 7.40253 h -3.74812 v -7.121421 q 0,-1.077584 0.39356,-1.714764 0.40292,-0.627809 1.33995,-1.236878 v 0 q 1.21814,-0.796475 3.32645,-1.386803 2.10832,-0.580959 4.68515,-0.580959 v 0 q 3.74811,0 3.74811,1.874059 v 0 q 0,0.468514 -0.14055,0.862067 -0.14056,0.402922 -0.37481,0.684031 v 0 q -0.46852,-0.0937 -1.21814,-0.187406 -0.74962,-0.0937 -1.49925,-0.0937 v 0 q -2.15516,0 -3.79496,0.440404 -1.63981,0.449774 -2.71739,1.058843 z m -3.74812,16.163753 v -10.91639 l 3.74812,0.562218 v 11.712864 q -0.23426,0.0937 -0.70277,0.215517 -0.46852,0.112443 -1.03073,0.112443 v 0 q -0.98388,0 -1.49925,-0.402922 -0.51537,-0.393552 -0.51537,-1.28373 z m 18.2627,0 v -10.91639 l 3.74812,0.562218 v 11.712864 q -0.23426,0.0937 -0.70277,0.215517 -0.46852,0.112443 -1.03074,0.112443 v 0 q -0.98388,0 -1.49924,-0.402922 -0.51537,-0.393552 -0.51537,-1.28373 z m 3.74812,-27.548657 v 18.97484 l -3.74812,-0.515366 V 39.128479 q 0.23426,-0.0937 0.73088,-0.215516 0.48726,-0.112444 1.00263,-0.112444 v 0 q 1.03073,0 1.52735,0.393552 0.48726,0.402923 0.48726,1.293101 z m 22.16073,25.299787 v 0 -15.74209 l 3.74812,-0.04685 v 15.929496 q 0,0.890178 -0.39355,1.433655 -0.40292,0.534106 -1.24625,1.049472 v 0 q -0.93703,0.609069 -2.67053,1.152546 -1.73351,0.534107 -3.98238,0.534107 v 0 q -3.3733,0 -5.95013,-1.171286 -2.57683,-1.171287 -4.02922,-3.682525 -1.4524,-2.501868 -1.4524,-6.484242 v 0 q 0,-4.076077 1.43366,-6.606055 1.42428,-2.529979 3.86056,-3.729376 2.43627,-1.190028 5.34106,-1.190028 v 0 q 1.82721,0 3.46701,0.515367 1.6398,0.515366 2.57683,1.264989 v 0 3.467008 q -0.89018,-0.890178 -2.31447,-1.527358 -1.43365,-0.627809 -3.35456,-0.627809 v 0 q -1.92091,0 -3.56071,0.815215 -1.6398,0.824586 -2.62368,2.698644 -0.98388,1.874058 -0.98388,5.013106 v 0 q 0,4.263483 2.06146,6.203133 2.06147,1.949021 5.48162,1.949021 v 0 q 1.6398,0 2.69865,-0.356071 1.04947,-0.346701 1.89279,-0.862067 z m 3.74812,-25.299787 v 10.447875 l -3.74812,0.04685 V 39.128479 q 0.23426,-0.0937 0.73089,-0.215516 0.48725,-0.112444 1.00262,-0.112444 v 0 q 1.03073,0 1.52736,0.393552 0.48725,0.402923 0.48725,1.293101 z m 29.79753,7.589936 v 0 q 0.37481,-0.187406 0.93703,-0.32796 0.56222,-0.140555 1.17128,-0.140555 v 0 q 0.93703,0 1.56484,0.299849 0.63718,0.30922 0.82459,0.918289 v 0 q 1.17129,3.373305 2.12705,6.249985 0.96515,2.886049 1.82721,5.575323 0.87144,2.698644 1.76162,5.556583 v 0 h 0.1874 q 0.89018,-4.216631 1.73351,-8.227116 0.84332,-4.001115 1.6398,-8.124043 0.79647,-4.122928 1.45239,-8.808074 v 0 q 0.65592,-0.32796 1.59295,-0.32796 v 0 q 0.89018,0 1.40555,0.393552 0.51536,0.402923 0.51536,1.199397 v 0 q 0,0.890178 -0.26237,2.689274 -0.25299,1.808466 -0.70277,4.216631 -0.4404,2.417536 -1.03073,5.106809 -0.58096,2.698644 -1.23688,5.387918 -0.65592,2.698644 -1.31184,5.088068 -0.65592,2.389425 -1.26499,4.16978 v 0 q -0.42166,0.234257 -1.07758,0.440404 -0.65592,0.215516 -1.49925,0.215516 v 0 q -1.03073,0 -1.7335,-0.32796 -0.70277,-0.32796 -0.93703,-0.890178 v 0 q -0.65592,-1.639801 -1.59295,-4.338445 -0.93703,-2.689273 -1.94902,-5.903283 -1.00262,-3.20464 -1.93965,-6.343688 v 0 q -0.89018,3.092197 -1.92091,6.41865 -1.03073,3.326454 -1.99587,6.184393 -0.95577,2.857938 -1.7054,4.591442 v 0 q -0.32796,0.187406 -1.01199,0.393553 -0.67466,0.215516 -1.51799,0.215516 v 0 q -1.03073,0 -1.71476,-0.356071 -0.67466,-0.3467 -0.90892,-0.862067 v 0 q -0.46851,-1.171286 -1.15254,-3.513859 -0.67466,-2.342573 -1.42429,-5.369177 -0.74962,-3.017234 -1.4805,-6.268725 -0.72152,-3.260862 -1.3587,-6.287466 -0.62781,-3.017234 -1.00262,-5.359806 v 0 q 0.32796,-0.327961 0.89018,-0.609069 0.56222,-0.281109 1.21814,-0.281109 v 0 q 0.84332,0 1.31184,0.393552 0.46851,0.402923 0.65592,1.339952 v 0 q 0.60907,2.951642 1.17129,5.715878 0.56221,2.764236 1.14317,5.575323 0.59033,2.811088 1.24625,5.875173 0.65592,3.073456 1.4524,6.587315 v 0 h 0.1874 q 0.65592,-2.108316 1.26499,-4.029225 0.60907,-1.92091 1.26499,-3.963634 0.65592,-2.033353 1.42428,-4.469629 0.77774,-2.436276 1.76162,-5.669026 z m 23.97858,-7.07457 v 0 q 0,-0.983881 0.70277,-1.667912 0.70277,-0.674661 1.7335,-0.674661 v 0 q 1.07758,0 1.7335,0.674661 0.65593,0.684031 0.65593,1.667912 v 0 q 0,0.98388 -0.65593,1.658541 -0.65592,0.684031 -1.7335,0.684031 v 0 q -1.03073,0 -1.7335,-0.684031 -0.70277,-0.674661 -0.70277,-1.658541 z m 0.56221,27.033291 v -10.91639 h 3.74812 v 12.275082 q -0.23426,0.0937 -0.70277,0.215517 -0.46852,0.112443 -1.03073,0.112443 v 0 q -0.98389,0 -1.49925,-0.402922 -0.51537,-0.393552 -0.51537,-1.28373 z m 3.74812,-18.693732 v 9.604549 h -3.74812 V 47.936553 q 0.23426,-0.0937 0.73089,-0.215516 0.48725,-0.112444 1.04947,-0.112444 v 0 q 0.98388,0 1.4805,0.393552 0.48726,0.402923 0.48726,1.339952 z m 22.06704,16.444862 v 0 -15.74209 l 3.74811,-0.04685 v 15.929496 q 0,0.890178 -0.39355,1.433655 -0.40292,0.534106 -1.24625,1.049472 v 0 q -0.93703,0.609069 -2.67053,1.152546 -1.73351,0.534107 -3.98238,0.534107 v 0 q -3.3733,0 -5.95013,-1.171286 -2.57683,-1.171287 -4.02923,-3.682525 -1.45239,-2.501868 -1.45239,-6.484242 v 0 q 0,-4.076077 1.43365,-6.606055 1.42429,-2.529979 3.86056,-3.729376 2.43628,-1.190028 5.34107,-1.190028 v 0 q 1.82721,0 3.46701,0.515367 1.6398,0.515366 2.57683,1.264989 v 0 3.467008 q -0.89018,-0.890178 -2.31446,-1.527358 -1.43366,-0.627809 -3.35457,-0.627809 v 0 q -1.92091,0 -3.56071,0.815215 -1.6398,0.824586 -2.62368,2.698644 -0.98388,1.874058 -0.98388,5.013106 v 0 q 0,4.263483 2.06146,6.203133 2.06147,1.949021 5.48162,1.949021 v 0 q 1.6398,0 2.69865,-0.356071 1.04947,-0.346701 1.8928,-0.862067 z m 3.74811,-25.299787 v 10.447875 l -3.74811,0.04685 V 39.128479 q 0.23425,-0.0937 0.73088,-0.215516 0.48725,-0.112444 1.00262,-0.112444 v 0 q 1.03073,0 1.52736,0.393552 0.48725,0.402923 0.48725,1.293101 z m 24.22221,18.365771 -15.74209,2.202019 -0.18741,-2.951642 14.14914,-1.92091 q -0.1874,-2.57683 -1.78035,-4.244742 -1.59295,-1.658542 -4.40404,-1.658542 v 0 q -2.90479,0 -4.80696,2.080205 -1.8928,2.089575 -1.8928,5.978246 v 0 1.030732 q 0.32796,3.748117 2.45502,5.687767 2.13642,1.949021 5.83769,1.949021 v 0 q 1.96776,0 3.56071,-0.655921 1.59295,-0.65592 2.52998,-1.405543 v 0 q 0.51536,0.32796 0.81521,0.768363 0.30922,0.449774 0.30922,1.011992 v 0 q 0,0.890178 -1.01199,1.658542 -1.00262,0.777734 -2.67053,1.246248 -1.65854,0.468515 -3.72001,0.468515 v 0 q -3.60756,0 -6.25935,-1.311841 -2.64242,-1.311841 -4.07608,-3.916782 -1.42428,-2.595571 -1.42428,-6.343687 v 0 q 0,-2.670533 0.76836,-4.760108 0.77773,-2.080205 2.15517,-3.5326 1.3868,-1.452395 3.30771,-2.23013 1.92091,-0.768364 4.16978,-0.768364 v 0 q 2.85794,0 5.03185,1.218138 2.18327,1.218138 3.42015,3.401416 1.24625,2.173908 1.24625,4.984995 v 0 q 0,1.030732 -0.46851,1.471136 -0.46852,0.449774 -1.31184,0.543477 z M 552.0246,44.141585 v 0 q 0,0.609069 -0.39355,1.096324 -0.40292,0.496626 -0.91829,0.730883 v 0 q -1.17129,-0.843326 -2.82983,-1.592949 -1.66791,-0.749624 -4.29159,-0.749624 v 0 q -2.85794,0 -5.12555,1.311841 -2.27698,1.311841 -3.60756,3.907412 -1.33996,2.604941 -1.33996,6.44676 v 0 q 0,5.76273 2.8392,8.66752 2.82983,2.90479 7.37442,2.90479 v 0 q 2.43628,0 4.26348,-0.702772 1.82721,-0.702771 2.9985,-1.592949 v 0 q 0.46851,0.187406 0.89018,0.674661 0.42166,0.496625 0.42166,1.152546 v 0 q 0,0.468514 -0.253,0.908918 -0.26237,0.449774 -0.87144,0.871437 v 0 q -1.07758,0.749624 -2.95164,1.339952 -1.87406,0.580958 -4.77885,0.580958 v 0 q -3.88867,0 -7.04646,-1.667912 -3.16715,-1.658542 -4.99436,-4.938144 -1.82721,-3.279602 -1.82721,-8.199005 v 0 q 0,-4.919403 1.90217,-8.245856 1.8928,-3.326454 5.01311,-4.994366 3.11093,-1.658541 6.8122,-1.658541 v 0 q 2.57683,0 4.54459,0.562217 1.96776,0.562218 3.07346,1.424284 1.09632,0.871438 1.09632,1.761615 z m 26.18996,14.523952 v 0 q 0,3.467008 -1.31184,6.043838 -1.31184,2.57683 -3.70126,3.982374 -2.38943,1.405544 -5.62218,1.405544 v 0 q -3.23275,0 -5.64091,-1.405544 -2.41754,-1.405544 -3.72938,-3.982374 -1.31184,-2.57683 -1.31184,-6.043838 v 0 q 0,-3.513859 1.33995,-6.071949 1.33058,-2.548719 3.74812,-3.954263 2.40816,-1.405543 5.59406,-1.405543 v 0 q 3.1859,0 5.57533,1.405543 2.38942,1.405544 3.72,3.954263 1.33995,2.55809 1.33995,6.071949 z m -10.63528,-8.339559 v 0 q -3.13904,0 -4.99436,2.230129 -1.84595,2.220759 -1.84595,6.10943 v 0 q 0,3.935523 1.80847,6.137541 1.79909,2.202019 5.03184,2.202019 v 0 q 3.1859,0 4.99437,-2.23013 1.7991,-2.220759 1.7991,-6.10943 v 0 q 0,-3.888671 -1.7991,-6.10943 -1.80847,-2.230129 -4.99437,-2.230129 z m 16.44487,11.24435 v 0 -4.263483 h 3.74811 v 4.076077 q 0,2.998493 1.59295,4.310334 1.59295,1.311841 4.40404,1.311841 v 0 q 1.87406,0 3.1859,-0.402923 1.31184,-0.393552 2.06146,-0.815215 v 0 -8.480114 h 3.74812 v 8.339559 q 0,0.983881 -0.26237,1.564839 -0.253,0.590329 -1.23688,1.152546 v 0 q -1.03073,0.609069 -2.95164,1.171286 -1.92091,0.562218 -4.59144,0.562218 v 0 q -3.0922,0 -5.27548,-0.918289 -2.1739,-0.908918 -3.29834,-2.811087 -1.12443,-1.892799 -1.12443,-4.797589 z m 18.74058,-12.228231 v 10.401024 h -3.74812 V 47.936553 q 0.23426,-0.0937 0.72151,-0.215516 0.49663,-0.112444 1.012,-0.112444 v 0 q 1.03073,0 1.51798,0.393552 0.49663,0.402923 0.49663,1.339952 z m -14.99247,0 v 10.401024 h -3.74811 V 47.936553 q 0.23425,-0.0937 0.72151,-0.215516 0.49662,-0.112444 1.05884,-0.112444 v 0 q 0.98388,0 1.47114,0.393552 0.49662,0.402923 0.49662,1.339952 z m 25.75893,2.529979 v 0 7.40253 h -3.74811 v -7.121421 q 0,-1.077584 0.40292,-1.714764 0.40292,-0.627809 1.33995,-1.236878 v 0 q 1.20877,-0.796475 3.31708,-1.386803 2.10832,-0.580959 4.68515,-0.580959 v 0 q 3.74812,0 3.74812,1.874059 v 0 q 0,0.468514 -0.14056,0.862067 -0.13118,0.402922 -0.36544,0.684031 v 0 q -0.46851,-0.0937 -1.21814,-0.187406 -0.75899,-0.0937 -1.50861,-0.0937 v 0 q -2.15517,0 -3.79497,0.440404 -1.6398,0.449774 -2.71739,1.058843 z m -3.74811,16.163753 v -10.91639 l 3.74811,0.562218 v 11.712864 q -0.23425,0.0937 -0.70277,0.215517 -0.46851,0.112443 -1.03073,0.112443 v 0 q -0.97451,0 -1.48988,-0.402922 -0.52473,-0.393552 -0.52473,-1.28373 z m 33.17083,-4.310334 v 0 q 0,2.998493 -2.20202,4.685145 -2.20202,1.686653 -6.3718,1.686653 v 0 q -3.56071,0 -5.80958,-1.105694 -2.24887,-1.096325 -2.24887,-2.408165 v 0 q 0,-0.562218 0.30922,-1.105695 0.29985,-0.534106 0.90892,-0.862067 v 0 q 1.26499,0.890178 2.95164,1.639801 1.68665,0.749624 3.84182,0.749624 v 0 q 4.87255,0 4.87255,-3.279602 v 0 q 0,-1.358693 -0.81521,-2.23013 -0.82459,-0.862067 -2.41754,-1.236878 v 0 l -3.88867,-1.030732 q -2.85794,-0.702772 -4.16978,-2.183278 -1.31184,-1.471136 -1.31184,-3.673155 v 0 q 0,-2.483127 2.01461,-4.310334 2.01462,-1.827206 6.13754,-1.827206 v 0 q 2.20202,0 3.84182,0.440403 1.63981,0.449774 2.55809,1.171287 0.90892,0.730882 0.90892,1.574209 v 0 q 0,0.609069 -0.29985,1.077583 -0.30922,0.468515 -0.82458,0.702772 v 0 q -0.56222,-0.374812 -1.42429,-0.824586 -0.87143,-0.440403 -2.04272,-0.749623 -1.17129,-0.299849 -2.57683,-0.299849 v 0 q -2.06147,0 -3.32645,0.796474 -1.26499,0.796475 -1.26499,2.24887 v 0 q 0,1.030733 0.73088,1.799096 0.72151,0.777735 2.31446,1.152546 v 0 l 3.23275,0.796475 q 3.1859,0.749623 4.77885,2.361314 1.59295,1.62106 1.59295,4.244742 z m 22.76981,-4.872552 -15.74209,2.202019 -0.18741,-2.951642 14.14914,-1.92091 q -0.1874,-2.57683 -1.78035,-4.244742 -1.59295,-1.658542 -4.40404,-1.658542 v 0 q -2.90479,0 -4.79759,2.080205 -1.90217,2.089575 -1.90217,5.978246 v 0 1.030732 q 0.32796,3.748117 2.46439,5.687767 2.12705,1.949021 5.82832,1.949021 v 0 q 1.96776,0 3.56071,-0.655921 1.59295,-0.65592 2.52998,-1.405543 v 0 q 0.51537,0.32796 0.82459,0.768363 0.29984,0.449774 0.29984,1.011992 v 0 q 0,0.890178 -1.00262,1.658542 -1.01199,0.777734 -2.67053,1.246248 -1.66791,0.468515 -3.72938,0.468515 v 0 q -3.60756,0 -6.24998,-1.311841 -2.65179,-1.311841 -4.07608,-3.916782 -1.43365,-2.595571 -1.43365,-6.343687 v 0 q 0,-2.670533 0.77773,-4.760108 0.76837,-2.080205 2.15517,-3.5326 1.37743,-1.452395 3.29834,-2.23013 1.92091,-0.768364 4.16978,-0.768364 v 0 q 2.85794,0 5.04122,1.218138 2.17391,1.218138 3.42016,3.401416 1.23687,2.173908 1.23687,4.984995 v 0 q 0,1.030732 -0.46851,1.471136 -0.46852,0.449774 -1.31184,0.543477 z m 22.4887,4.872552 v 0 q 0,2.998493 -2.20202,4.685145 -2.20202,1.686653 -6.3718,1.686653 v 0 q -3.56071,0 -5.80958,-1.105694 -2.24887,-1.096325 -2.24887,-2.408165 v 0 q 0,-0.562218 0.29985,-1.105695 0.30922,-0.534106 0.91829,-0.862067 v 0 q 1.26499,0.890178 2.95164,1.639801 1.68665,0.749624 3.84182,0.749624 v 0 q 4.87255,0 4.87255,-3.279602 v 0 q 0,-1.358693 -0.82458,-2.23013 -0.81522,-0.862067 -2.40817,-1.236878 v 0 l -3.88867,-1.030732 q -2.85794,-0.702772 -4.16978,-2.183278 -1.31184,-1.471136 -1.31184,-3.673155 v 0 q 0,-2.483127 2.01461,-4.310334 2.01461,-1.827206 6.13754,-1.827206 v 0 q 2.20202,0 3.84182,0.440403 1.6398,0.449774 2.54872,1.171287 0.91829,0.730882 0.91829,1.574209 v 0 q 0,0.609069 -0.30922,1.077583 -0.29985,0.468515 -0.81521,0.702772 v 0 q -0.56222,-0.374812 -1.43366,-0.824586 -0.86207,-0.440403 -2.03335,-0.749623 -1.17129,-0.299849 -2.57683,-0.299849 v 0 q -2.06147,0 -3.32646,0.796474 -1.26499,0.796475 -1.26499,2.24887 v 0 q 0,1.030733 0.72152,1.799096 0.73088,0.777735 2.32383,1.152546 v 0 l 3.23275,0.796475 q 3.1859,0.749623 4.77885,2.361314 1.59295,1.62106 1.59295,4.244742 z"
               opacity="1"
               fill="#000000"
               class="wordmark-text-0"
               data-fill-palette-color="primary"
               id="text-0"
               style="stroke-width:0.937029" /></g><g
             transform="translate(188.1091,-3.1788816)"
             id="g10"><svg
               viewBox="0 0 141.10553 141.10553"
               height="141.10553"
               width="141.10553"
               version="1.1"
               id="svg10"><g
                 id="g6"><svg
                   version="1.1"
                   id="svg6"
                   width="100%"
                   height="100%" /></g><g
                 id="icon-0"><svg
                   viewBox="0 0 141.10553 141.10553"
                   height="141.10553"
                   width="141.10553"
                   version="1.1"
                   id="svg9"><g
                     id="g7"><path
                       d="M 0,70.553 C 0,31.588 31.588,0 70.553,0 c 38.965,0 70.553,31.588 70.553,70.553 0,38.965 -31.588,70.553 -70.553,70.553 C 31.588,141.106 0,109.518 0,70.553 Z m 70.553,67.717 c 37.399,0 67.718,-30.318 67.717,-67.717 0,-37.399 -30.318,-67.718 -67.717,-67.718 -37.399,0 -67.718,30.318 -67.718,67.718 0,37.399 30.318,67.718 67.718,67.717 z"
                       data-fill-palette-color="accent"
                       fill="#06bbcc"
                       stroke="transparent"
                       id="path6" /><circle
                       cx="70.552765"
                       cy="70.552765"
                       fill="#06bbcc"
                       stroke="transparent"
                       stroke-width="0"
                       fill-opacity="1"
                       data-fill-palette-color="accent"
                       id="ellipse6"
                       r="69.847237" /></g><g
                     transform="translate(28.064188,31.658592)"
                     id="g9"><svg
                       viewBox="0 0 84.977149 77.788341"
                       height="77.788338"
                       width="84.97715"
                       version="1.1"
                       id="svg8"><g
                         id="g8"><svg
                           version="1.1"
                           x="0"
                           y="0"
                           viewBox="1.364125 2.830375 97.08688 88.873626"
                           enable-background="new 0 0 100 100"
                           xml:space="preserve"
                           height="77.788338"
                           width="84.97715"
                           class="icon-cg-0"
                           data-fill-palette-color="quaternary"
                           id="cg-0"><path
                             d="M 3.849,30.766 29.287,5.317 C 32.605,2 37.98,2.004 41.287,5.314 l 25.457,25.452 c 3.312,3.314 3.307,8.679 -0.006,11.992 -3.316,3.316 -8.683,3.31 -11.996,-0.002 -1.74,-1.741 -10.966,-10.96 -10.966,-10.96 l 0.002,30.636 C 43.778,62.549 43.764,62 43.76,63 h 0.028 c 0,10 7.932,11.648 10.797,11.934 l 35.385,-0.11 c 4.684,0 8.481,3.743 8.481,8.427 0.005,4.683 -3.798,8.455 -8.481,8.453 L 54.144,91.692 54.13,91.628 C 52.978,91.624 47.154,91.902 41.208,88.826 32.114,84.12 27.05,76.212 26.882,63.225 26.843,62.892 26.818,62.556 26.818,62.214 L 26.813,31.8 c 0,0 -9.218,9.208 -10.971,10.96 -3.314,3.316 -8.682,3.313 -11.994,0 C 0.536,39.447 0.536,34.076 3.849,30.766 Z"
                             fill="#ffffff"
                             data-fill-palette-color="quaternary"
                             id="path7" /></svg></g></svg></g></svg></g></svg></g><text
             xml:space="preserve"
             style="font-size:34.2247px;line-height:47.3441px;font-family:'Segoe UI';-inkscape-font-specification:'Segoe UI';text-align:center;letter-spacing:-1.37px;text-anchor:middle;fill:#61777f;fill-opacity:1;stroke-width:2.85205"
             x="453.82928"
             y="126.14853"
             id="text1"><tspan
               sodipodi:role="line"
               id="tspan1"
               x="453.14429"
               y="126.14853"
               style="font-style:normal;font-variant:normal;font-weight:normal;font-stretch:normal;font-family:Corbel;-inkscape-font-specification:Corbel;letter-spacing:-1.37px;stroke-width:2.85205">Get Your Skills Up</tspan></text><text
             xml:space="preserve"
             style="font-weight:900;font-size:86.2663px;line-height:119.335px;font-family:'Segoe UI';-inkscape-font-specification:'Segoe UI Heavy';text-align:center;letter-spacing:-1.33px;text-anchor:middle;fill:#47dd80;stroke-width:7.18885"
             x="693.12299"
             y="86.39959"
             id="text2"><tspan
               sodipodi:role="line"
               id="tspan2"
               x="692.45801"
               y="86.39959"
               style="font-style:normal;font-variant:normal;font-weight:normal;font-stretch:normal;font-family:Impact;-inkscape-font-specification:Impact;letter-spacing:-1.33px;fill:#1a1a1a;stroke-width:7.18885">World Wide Courses</tspan></text></g></g><g
         id="g11" /><rect
         width="395.51999"
         height="214.23592"
         fill="none"
         stroke="none"
         visibility="hidden"
         id="rect12"
         x="0"
         y="0" /></g></g></svg>
